<svg xmlns="http://www.w3.org/2000/svg" xmlns:xlink="http://www.w3.org/1999/xlink" width="24" height="24" viewBox="0 0 24 24"><defs><clipPath id="a"><rect width="24" height="24" transform="translate(-9164 -5602)" fill="#fff" stroke="#707070" stroke-width="1"/></clipPath></defs><g transform="translate(9164 5602)" clip-path="url(#a)"><g transform="translate(-9162 -5602)"><path d="M38.427,8.561a15.169,15.169,0,0,0,2.607-1.645,1.366,1.366,0,0,1,.117,1.057,1.166,1.166,0,0,1-.387.522,1.757,1.757,0,0,1-.7.323,2.312,2.312,0,0,1-1.636-.256m.127,3.756.973.562c-1.987,1.114-2.527,3.181-3.169,5.2-.642-2.014-1.182-4.082-3.169-5.2l.973-.562a.477.477,0,0,0,.308-.468c-.089-1.886.42-2.72,1.107-3.244a1.223,1.223,0,0,1,1.562,0c.687.524,1.2,1.358,1.107,3.244a.477.477,0,0,0,.308.468ZM36.359,0A8.8,8.8,0,0,1,39.59.673a8.126,8.126,0,0,1,1.883,1.149,9.1,9.1,0,0,1,.706.647A2.94,2.94,0,0,0,44.165,1.13c-.739,2.422-4.109,5.281-6.443,6.376h0A2.17,2.17,0,0,0,35,7.5h0c-2.334-1.094-5.7-3.954-6.443-6.376a2.94,2.94,0,0,0,1.986,1.338,9.144,9.144,0,0,1,.706-.647A8.126,8.126,0,0,1,33.128.673,8.8,8.8,0,0,1,36.359,0M34.291,8.561a15.168,15.168,0,0,1-2.607-1.645,1.366,1.366,0,0,0-.117,1.057,1.167,1.167,0,0,0,.387.522,1.757,1.757,0,0,0,.7.323,2.312,2.312,0,0,0,1.636-.256" transform="translate(-26.266)" fill="#fff" fill-rule="evenodd"/><path d="M15.794,56.527a13.072,13.072,0,0,0,1.335-1.61l.186.349a8.087,8.087,0,0,1,.908,3.724v2.125l.011,1.1a17.5,17.5,0,0,0,1.954,7.946l-2.774-2.237L15.45,71.112l-2.062-1.941-3.295,5.347L6.8,69.171,4.737,71.112,2.774,67.927,0,70.164a17.5,17.5,0,0,0,1.954-7.946l.011-1.1V58.991a8.084,8.084,0,0,1,.908-3.724l.185-.349a13.071,13.071,0,0,0,1.335,1.61l-.161.334a2.674,2.674,0,0,0-.173,2.067,2.478,2.478,0,0,0,.813,1.118A3.072,3.072,0,0,0,6.1,60.62a3.5,3.5,0,0,0,.878.083,7.109,7.109,0,0,0-.1,1.2L4.262,63.414l2.019,1.132a3.359,3.359,0,0,1,.459.31c1.665,1.495,2.666,5.916,3.353,8.076.688-2.16,1.689-6.581,3.353-8.076a3.354,3.354,0,0,1,.459-.31l2.019-1.132L13.309,61.9a7.109,7.109,0,0,0-.1-1.2,3.5,3.5,0,0,0,.878-.083,3.072,3.072,0,0,0,1.228-.574,2.478,2.478,0,0,0,.813-1.118,2.674,2.674,0,0,0-.173-2.067l-.161-.334Z" transform="translate(0 -50.518)" fill="#fff" fill-rule="evenodd"/></g></g></svg>